<?xml version="1.0" encoding="UTF-8"?>
<svg xmlns="http://www.w3.org/2000/svg" width="128" height="128" viewBox="0 0 128 128">
  <defs>
    <linearGradient id="sky" x1="0" y1="0" x2="0" y2="1">
      <stop offset="0%" stop-color="#5fb2ff"/>
      <stop offset="100%" stop-color="#a8d4ff"/>
    </linearGradient>
    <linearGradient id="shadow" x1="0" y1="0" x2="1" y2="1">
      <stop offset="0%" stop-color="#000" stop-opacity="0.18"/>
      <stop offset="100%" stop-color="#000" stop-opacity="0"/>
    </linearGradient>
  </defs>
  <!-- background sky -->
  <rect x="0" y="0" width="128" height="128" fill="url(#sky)"/>

  <!-- bust clipping circle for avatar look -->
  <clipPath id="avatarClip">
    <circle cx="64" cy="64" r="56"/>
  </clipPath>
  <g clip-path="url(#avatarClip)">
    <!-- neck and shirt -->
    <path d="M74 86c-6 0-10 3-12 7l-2 4c-2 3-6 5-10 5h40c-5-5-9-10-10-16-1-6-3-7-6-7z" fill="#ffe1c6"/>
    <path d="M50 106c10-8 18-12 24-12 10 0 18 8 24 20H36c4-3 9-6 14-8z" fill="#eaeef2"/>
    <path d="M72 94c8 0 14 6 22 20H58c6-6 10-20 14-20z" fill="#f7f9fb"/>

    <!-- hair silhouette (dark) -->
    <path d="M32 40c4-10 16-18 28-18 13 0 24 8 30 18 3 6 4 12 3 18-1 8-5 14-12 18-8 5-18 8-28 6-9-1-16-6-21-12-5-6-5-16 0-30z" fill="#262b31"/>

    <!-- head (profile) -->
    <path d="M54 44c10-5 22-3 28 6 4 6 3 13-2 18-6 6-16 8-24 4-6-3-9-9-8-16 1-6 3-9 6-12z" fill="#ffd7b8"/>

    <!-- ear line -->
    <path d="M84 66c-2 3-5 4-7 3" stroke="#c79c80" stroke-width="2" fill="none"/>

    <!-- hair details -->
    <path d="M48 32c8-6 28-6 36 4" stroke="#1b1f24" stroke-width="3" stroke-linecap="round" fill="none" opacity="0.5"/>
    <path d="M40 42c6-8 16-12 28-12" stroke="#1b1f24" stroke-width="3" stroke-linecap="round" fill="none" opacity="0.35"/>

    <!-- collar -->
    <path d="M58 88c-6 6-10 10-14 18h10c2-4 4-9 6-14l-2-4z" fill="#dfe5ea"/>
    <path d="M86 96c-6-2-12-2-18 0l-2 8h24c-1-3-2-6-4-8z" fill="#e7ecf1"/>

    <!-- soft vignette -->
    <rect x="0" y="0" width="128" height="128" fill="url(#shadow)" opacity="0.15"/>
  </g>

  <!-- circular frame -->
  <circle cx="64" cy="64" r="56" fill="none" stroke="#ffffff" stroke-opacity="0.5"/>
</svg>